# xmcd
#
# Track frame offsets: 
#        150
#        38280
#        71520
#        90950
#        141967
#        168953
#        194525
#
# Disc length: 3766 seconds
#
# Revision: 3
# Processed by: cddbd v1.5.2PL0 Copyright (c) Steve Scherf et al.
# Submitted via: ExactAudioCopy v0.99pb3
#
DISCID=510eb407
DTITLE=Red Sparowes - At the Soundless Dawn
DYEAR=2005
DGENRE=Post-rock
TTITLE0=Alone and Unaware, the Landscape Was Transformed in Front of o
TTITLE0=ur Eyes.
TTITLE1=Buildings Began to Stretch Wide Across the Sky, and the Air Fi
TTITLE1=lled With a Reddish Glow.
TTITLE2=The Soundless Dawn Came Alive as Cities Began to Mark the Hori
TTITLE2=zon.
TTITLE3=Mechanical Sounds Cascaded Through the City Walls and Everyone
TTITLE3=Reveled in Their Ignorance.
TTITLE4=A Brief Moment of Clarity Broke Through the Deafening Hum, but
TTITLE4=It Was Too Late.
TTITLE5=Our Happiest Days Slowly Began to Turn Into Dust.
TTITLE6=The Sixth Extinction Crept Up Slowly, Like Sunlight Through th
TTITLE6=e Shutters, as We Looked Back In Regret...
EXTD=YEAR: 2005
EXTT0=
EXTT1=
EXTT2=
EXTT3=
EXTT4=
EXTT5=
EXTT6=
PLAYORDER=
